<svg width="16" height="16" viewBox="0 0 16 16" fill="none" xmlns="http://www.w3.org/2000/svg">
<path d="M4.36353 8.72731C4.36353 7.76288 4.74664 6.83796 5.42859 6.15601C6.11054 5.47406 7.03547 5.09094 7.99989 5.09094C8.96431 5.09094 9.88924 5.47406 10.5712 6.15601C11.2531 6.83796 11.6363 7.76288 11.6363 8.72731V12.3637C11.6363 13.7353 11.6363 14.4204 11.2101 14.8466C10.7839 15.2728 10.0988 15.2728 8.72716 15.2728H7.27262C5.90098 15.2728 5.21589 15.2728 4.78971 14.8466C4.36353 14.4204 4.36353 13.7353 4.36353 12.3637V8.72731Z" stroke="white" stroke-width="1.2" stroke-linecap="round" stroke-linejoin="round"/>
<path d="M6.54534 5.09093V4.36366C6.54534 3.67784 6.54534 3.3353 6.75843 3.1222C6.97153 2.90911 7.31407 2.90911 7.99989 2.90911M7.99989 2.90911C8.68571 2.90911 9.02825 2.90911 9.24134 3.1222C9.45443 3.3353 9.45443 3.67784 9.45443 4.36366V5.09093M7.99989 2.90911V0.727295M7.99989 0.727295H6.54534M7.99989 0.727295H9.99625C10.5469 0.727435 11.0772 0.935792 11.4806 1.31057L11.6363 1.45457M4.36353 8.7273H11.6363" stroke="white" stroke-width="1.2" stroke-linecap="round" stroke-linejoin="round"/>
<rect x="4" y="9" width="8" height="6" rx="1" fill="white"/>
</svg>
